<?xml version="1.0" encoding="utf-8"?>
<!-- Generator: Adobe Illustrator 16.0.0, SVG Export Plug-In . SVG Version: 6.00 Build 0)  -->
<!DOCTYPE svg PUBLIC "-//W3C//DTD SVG 1.1//EN" "http://www.w3.org/Graphics/SVG/1.1/DTD/svg11.dtd">
<svg version="1.1" id="Layer_1" xmlns="http://www.w3.org/2000/svg" xmlns:xlink="http://www.w3.org/1999/xlink" x="0px" y="0px"
	 width="72px" height="72px" viewBox="0 0 72 72" enable-background="new 0 0 72 72" xml:space="preserve">
<path fill="#00BABE" d="M34.413,0.366c-0.062,0-0.123,0.007-0.185,0.007c-0.093-0.001-0.184-0.007-0.276-0.007
	c-2.604,0-5.131,0.318-7.554,0.905c-0.021,0.005-0.042,0.01-0.064,0.015c-0.498,0.122-0.991,0.256-1.48,0.4
	c-0.345,0.096-0.696,0.175-1.037,0.28l0.005,0.046C11.116,6.251,1.952,18.235,1.952,32.366c0,17.603,14.215,31.882,31.792,31.996
	c0.893,1.266,0.775,2.904-2.689,4.658c-3.481,1.764-0.283,2.43-0.283,2.43c1.197,0.123,2.412,0.186,3.642,0.186
	c19.68,0,35.635-15.955,35.635-35.635C70.048,16.32,54.093,0.366,34.413,0.366z M48.628,51.252c0,2.855-4.428,2.855-4.428,0
	c0-0.18,0-0.359,0-0.537c-1.522-1.531-3.359-2.674-5.631-2.543c-0.657,0.039-1.292,0.148-1.917,0.359
	c-0.228,0.078-0.309,0.1-0.336,0.105c-0.01,0.008-0.034,0.021-0.101,0.057c-0.337,0.172-0.667,0.25-0.984,0.26
	c-2.276,1.1-4.937,1.496-7.815,0.873c-8.11-1.752-15.563-7.768-15.687-16.672c-0.04-2.856,4.388-2.853,4.428,0
	c0.146,10.588,18.693,18.676,21.949,6.036c1.64-6.367-2.672-13.069-9.648-13.244c-6.873-0.174-4.086,9.901,1.822,9.76
	c2.857-0.068,2.85,4.359,0,4.427c-8.014,0.191-14.854-11.687-7.27-17.142c7.807-5.616,19.051,3.354,19.854,11.51
	c0.334,3.378-0.508,6.722-2.194,9.447c1.225,0.238,2.415,0.68,3.529,1.291c0-9.069,0-18.137,0-27.207c0-2.855,4.428-2.855,4.428,0
	C48.628,29.105,48.628,40.178,48.628,51.252z M55.959,52.41c0,2.855-4.428,2.855-4.428,0c0-11.074,0-22.146,0-33.219
	c0-2.855,4.428-2.855,4.428,0C55.959,30.264,55.959,41.336,55.959,52.41z"/>
</svg>
