<?xml version="1.0" encoding="utf-8"?>
<!-- Generator: Adobe Illustrator 24.1.0, SVG Export Plug-In . SVG Version: 6.00 Build 0)  -->
<svg version="1.1" id="Layer_1" xmlns="http://www.w3.org/2000/svg" xmlns:xlink="http://www.w3.org/1999/xlink" x="0px" y="0px"
	 viewBox="0 0 129.74 72" style="enable-background:new 0 0 129.74 72;" xml:space="preserve">
<style type="text/css">
	.st0{fill:#97C93D;}
	.st1{fill:#57BC74;}
	.st2{fill:none;stroke:#57BC74;stroke-width:0.6864;stroke-miterlimit:10;}
</style>
<g>
	<path class="st0" d="M56.27,24.71c0,0,11.64-3.07,13.7-17.19c0,0,1.12-5.08-4.43-2.42c-2.48,1.19-10.35,4.21-11.64,17.42
		C53.91,22.52,53.61,25.42,56.27,24.71z"/>
	<path class="st0" d="M43.87,13c0,0-0.35,7.08,7.2,10.76c0,0,2.65,1.54,2.15-2.05c-0.22-1.6-0.51-6.56-7.7-9.64
		C45.52,12.06,43.95,11.38,43.87,13z"/>
	<path class="st1" d="M31.52,18.78c0.5-1.99,0.5-4.46-0.65-6.23c-1.5-2.31-4.9-3.06-6.94-1.04c-1.68,1.67-2.25,4.32-2.24,6.6
		c0.01,2.78,0.91,5.61,2.84,7.66c1.97,2.09,5.17,3.3,8.02,2.71c2.6-0.54,4.34-2.67,5.26-5.05c2.09-5.45,0.42-12.35-3.28-16.7
		c-5.34-6.29-14.59-6.04-21.45-2.67c-1.29,0.64-2.72,1.36-3.73,2.42c-2.08,2.16-3.73,4.76-4.83,7.55
		c-1.32,3.36-1.17,6.77-1.17,10.28c0,4.81,0,9.63,0,14.44c0,8.82,0,17.64,0,26.46c0,0.17,0,0.33,0,0.5c0,2.21,3.43,2.21,3.43,0
		c0-6.52,0-13.04,0-19.56c0-8.31,0-16.62,0-24.93c0-0.91-0.03-1.83,0.08-2.73c0.38-3.03,1.91-5.95,3.78-8.3
		c0.3-0.37,0.61-0.73,0.93-1.08c0.1-0.11,0.47-0.37,0.5-0.52c0.01-0.06-0.53,0.36-0.15,0.11c0.27-0.17,0.53-0.36,0.8-0.53
		c2.31-1.45,4.89-2.48,7.59-2.93c3.46-0.57,7.35,0.13,10.16,2.31c2,1.56,3.34,3.86,4.07,6.26c0.68,2.25,0.92,4.78,0.45,6.99
		c-0.23,1.12-0.49,1.85-1.07,2.78c-0.19,0.31-0.32,0.47-0.72,0.84c-0.29,0.28-0.1,0.11-0.3,0.24c-0.08,0.05-0.7,0.38-0.46,0.28
		c-0.94,0.39-1.64,0.34-2.61,0.08c-1.12-0.29-2.1-0.85-2.87-1.68c-1.42-1.52-1.9-3.67-1.82-5.72c0.03-0.85,0.17-1.69,0.55-2.64
		c0.1-0.26-0.1,0.21,0.02-0.04c0.04-0.09,0.09-0.19,0.14-0.28c0.11-0.19,0.22-0.39,0.35-0.57c-0.21,0.29,0.09-0.09,0.17-0.17
		c0.31-0.3-0.09,0.01,0.2-0.15c0.34-0.19-0.25,0.01,0.13-0.05c0.36-0.06-0.25-0.09,0.12,0c0.23,0.06,0.78,0.21,1.06,0.52
		c0.21,0.23,0.32,0.55,0.42,0.94c0.08,0.31,0.11,0.77,0.1,1.29c-0.01,0.22-0.03,0.43-0.04,0.65c-0.04,0.48,0.04-0.24,0,0.02
		c-0.01,0.08-0.02,0.15-0.04,0.23c-0.03,0.16-0.06,0.32-0.1,0.48C27.67,20.01,30.98,20.92,31.52,18.78L31.52,18.78z"/>
	<path class="st1" d="M41.17,37.99c-0.87-5.68-4.42-10.71-9.94-12.64c-5.97-2.08-12.65-0.05-17.94,2.94
		c-6.29,3.56-10.6,10.53-9.83,17.91c0.73,7.03,5.19,14.27,11.84,17.05c4.18,1.75,9.03,1.81,13.38,0.67
		c0.26-0.07,0.52-0.14,0.78-0.23c0.72-0.25,1.26-0.87,1.26-1.65c0-3.78,0-7.56,0-11.34c1.95,0.82,4.13,0.92,6.2-0.13
		C41.31,48.34,41.83,42.28,41.17,37.99z M37.67,43.88c-0.23,0.94-0.44,1.5-0.94,2.31c-0.31,0.5-0.83,1.02-1.27,1.28
		c-0.5,0.29-1.09,0.43-1.76,0.41c-0.79-0.02-1.82-0.32-2.65-0.8c-3.07-1.77-3.72-5.94-2.77-8.94c0.15-0.47,0.12-0.4,0.29-0.72
		c0.08-0.15,0.17-0.3,0.26-0.45c0.04-0.06,0.06-0.1,0.07-0.12c0.01-0.01,0.04-0.04,0.09-0.09c0.09-0.1,0.18-0.19,0.28-0.27
		c0.03-0.02,0.06-0.04,0.1-0.05c0.01,0,0.09-0.05,0.2-0.02c0.58,0.14,1.14,0.47,1.34,1c0.28,0.72,0.25,1.35,0.2,2.25
		c0,0.08-0.01,0.15-0.02,0.23c0,0.01,0,0.01,0,0.01c-0.01,0.09-0.03,0.18-0.05,0.27c-0.02,0.13-0.05,0.25-0.08,0.38
		c-0.54,2.14,2.77,3.06,3.31,0.91c0.41-1.63,0.47-3.55-0.12-5.14c-0.84-2.28-3.47-3.98-5.9-3.12c-4.17,1.47-4.36,7.98-3.21,11.42
		c0.45,1.33,1.23,2.59,2.22,3.66c0,4.16,0,8.33,0,12.49c-2.07,0.53-4.08,0.61-6.33,0.41c-2.31-0.21-4.56-0.96-6.51-2.21
		c-2.62-1.69-4.44-4.34-5.8-7.09c-2.21-4.46-2.49-9.58-0.13-14c0.82-1.54,1.57-2.57,2.71-3.76c0.36-0.38,0.73-0.74,1.12-1.09
		c0.27-0.24,0.84-0.53,0.22-0.21c0.82-0.43,1.57-1.05,2.39-1.51c2.02-1.15,4.14-2.08,6.39-2.69c4.93-1.34,10.6-0.72,13.87,3.61
		C37.6,35.43,38.61,40.08,37.67,43.88z M29.22,36.52C29.2,36.54,29.2,36.54,29.22,36.52L29.22,36.52z"/>
	<path class="st1" d="M122.96,33.53c0,8.33,0,16.67,0,25c0,0.78,0,1.56,0,2.34c-0.48,0.16-0.97,0.3-1.46,0.41
		c-1.78,0.41-3.74,0.53-5.71,0.15c-2.85-0.55-5.38-1.96-7.47-3.97c-1.11-1.07-2.2-2.2-2.73-3.67c-0.19-0.52-0.35-1.04-0.51-1.56
		c3.14-0.12,6.32-1.22,8.4-3.57c5.14-5.81,2.8-15.22-2.42-20.11c-2.27-2.12-5.24-3.97-8.4-4.24c-2.2-0.19-2.19,3.24,0,3.43
		c0.03,0,0.05,0,0.07,0.01c0.06,0.01,0.12,0.02,0.18,0.03c0.21,0.05,0.42,0.09,0.62,0.15c0.54,0.15,0.93,0.3,1.32,0.49
		c1.04,0.49,2.05,1.1,2.95,1.83c2.23,1.8,3.95,4.2,4.68,7c0.73,2.79,0.59,6.35-1.21,8.73c-1.26,1.66-2.99,2.32-4.98,2.7
		c-0.48,0.09-0.05,0.03-0.52,0.07c-0.23,0.02-0.45,0.04-0.68,0.05c-0.41,0.02-0.82,0.02-1.23,0.01c-0.27-0.01-0.54-0.03-0.81-0.05
		c-0.49-0.03,0.06,0.01,0.07,0.02c-1.54-0.24-2.58,1.09-1.94,2.52c0.34,0.76,0.67,2.15,1.01,3.14c0.46,1.34,1.03,2.42,1.92,3.52
		c1.84,2.26,4.16,4.24,6.82,5.48c3.76,1.75,8,2.1,12.01,1.04c0.89-0.23,1.77-0.54,2.6-0.94c0.53-0.26,0.85-0.91,0.85-1.48
		c0-8.33,0-16.67,0-25c0-1.17,0-2.34,0-3.51C126.39,31.32,122.96,31.32,122.96,33.53z"/>
	<g>
		<path class="st1" d="M74.36,29.24c-2.05-4.21-6.51-5.58-10.87-4.34c-4.48,1.29-7.91,4.2-9.83,8.19c-0.03-0.06-0.05-0.13-0.08-0.19
			c-1.5-3.17-4.03-5.72-7.26-7.12c-4.62-2.01-9.77-1.73-14.52-0.3c-2.11,0.63-1.21,3.95,0.91,3.31c5.65-1.69,12.85-1.64,16.62,3.64
			c1.49,2.1,2.43,4.72,2.64,7.33c-0.05,0.73-0.05,1.47-0.01,2.21c-0.07,0.83-0.19,1.65-0.42,2.42c-0.22,0.75-0.56,1.51-0.99,2.1
			c-0.4,0.54-0.79,0.89-1.51,1.2c0.2-0.09-0.83,0.19-0.65,0.17c-0.2,0.02-0.41,0.03-0.62,0.02c-0.11,0-0.5-0.04-0.51-0.04
			c-1.03-0.16-2.05-0.56-2.87-1.19c-1.39-1.07-2.14-2.76-2.42-4.56c-0.21-1.35,0-3.4,0.48-4.43c0.1-0.2,0.2-0.4,0.32-0.59
			c0.04-0.07,0.19-0.25,0.22-0.3c0.06-0.07,0.13-0.13,0.2-0.2c0.05-0.04,0.14-0.1,0.21-0.14c0,0,0.02,0,0.04,0
			c0.12,0.01,0.26,0.01,0.13-0.01c0.49,0.1,0.82,0.22,1.11,0.56c0.42,0.5,0.51,1.37,0.47,2.26c-0.01,0.21-0.03,0.42-0.04,0.63
			c0,0.04,0,0.06,0,0.07c-0.01,0.03-0.01,0.06-0.02,0.1c-0.03,0.17-0.06,0.34-0.1,0.51c-0.54,2.14,2.77,3.06,3.31,0.91
			c0.47-1.85,0.48-4.05-0.39-5.78c-1.15-2.28-4.29-3.52-6.52-2.03c-1.92,1.28-2.63,3.77-2.86,5.94c-0.25,2.47,0.24,5.13,1.55,7.25
			c2.75,4.5,9.65,6.35,13.17,1.73c0.16-0.21,0.31-0.44,0.45-0.66c0.37,0.57,0.79,1.11,1.3,1.58c3.75,3.53,9.76,1.44,12.28-2.53
			c2.19-3.44,2.5-9.09-0.2-12.37c-1.43-1.73-3.7-2.05-5.65-0.93c-2.12,1.22-2.76,3.78-2.55,6.07c0.05,0.57,0.12,1.16,0.26,1.72
			c0.54,2.14,3.85,1.23,3.31-0.91c-0.03-0.11-0.05-0.22-0.07-0.33c-0.02-0.1-0.03-0.19-0.05-0.29c-0.01-0.09-0.02-0.17-0.03-0.26
			c-0.05-0.89-0.08-1.52,0.2-2.25c0.22-0.56,0.75-0.76,1.29-1c0.01-0.01,0.04,0,0.05,0c-0.03,0-0.03-0.01,0.02-0.02
			c0.01,0,0.08,0.01,0.15,0.02c0,0,0,0,0,0c0,0,0.01,0,0.01,0c0,0,0,0,0,0c0,0-0.01,0-0.01,0c0.07,0.03,0.14,0.07,0.2,0.12
			c0.06,0.06,0.14,0.13,0.18,0.18c0.21,0.22,0.11,0.12,0.12,0.14c0.1,0.14,0.19,0.29,0.27,0.44c0.25,0.44,0.18,0.29,0.34,0.77
			c0.29,0.87,0.38,1.48,0.41,2.25c0.07,1.77-0.25,3.41-1.21,4.92c-0.9,1.43-2.74,2.5-4.3,2.63c-1.4,0.12-2.46-0.44-3.15-1.42
			c-0.82-1.15-1.27-2.55-1.44-4.03c0.07-0.92,0.07-1.85-0.02-2.78c0.13-1.37,0.44-2.73,0.87-3.96c1.49-4.22,5.4-7.54,9.98-7.83
			c1.7-0.11,2.96,0.34,3.97,1.38c0.12,0.13,0.24,0.26,0.36,0.4c0.01,0.02,0.01,0.02,0.02,0.03c0.04,0.05,0.08,0.1,0.11,0.15
			c0.18,0.27,0.35,0.54,0.5,0.82c0.06,0.11,0.28,0.6,0.29,0.61c0.07,0.18,0.14,0.35,0.2,0.53c0.06,0.18,0.09,0.48,0.16,0.68
			c-0.05,0.82,0,1.65,0,2.47c0,3.5,0,7,0,10.51c0,6.63-0.12,13.27,0,19.9c0,0.13,0,0.26,0,0.39c0,2.21,3.43,2.21,3.43,0
			c0-6.8,0-13.6,0-20.4c0-3.79,0-7.58,0-11.36C75.31,32.17,75.16,30.88,74.36,29.24z M62.32,39.91c0-0.01,0-0.01,0-0.02
			C62.31,39.82,62.29,39.61,62.32,39.91z"/>
		<path class="st1" d="M63.84,36.41c0.04,0.01,0.15,0,0.18,0c0,0,0,0,0,0C63.97,36.41,63.9,36.41,63.84,36.41z"/>
	</g>
	<path class="st1" d="M100.31,33.42c-1.82-0.67-3.7,0.1-5.23,1.28c-1.36-3.46-3.51-7.02-6.67-8.65c-7.04-3.6-13.19,4.89-14.57,10.86
		c-1.22,5.28-0.24,14.49,7.01,14.4c7.07-0.08,10.77-7.82,8.87-14.01c-0.94-3.06-3.58-5.43-6.86-3.74c-2.82,1.46-3.19,5.11-2.48,7.89
		c0.54,2.14,3.85,1.23,3.31-0.91c-0.04-0.18-0.08-0.35-0.11-0.53c-0.01-0.06-0.02-0.09-0.02-0.12c0-0.01,0-0.03,0-0.08
		c-0.02-0.27-0.04-0.55-0.05-0.82c-0.01-0.86,0.06-1.8,0.72-2.26c0.34-0.23,0.72-0.3,1.01-0.32c0.02,0,0.03,0.01,0.05,0.01
		c0.06,0.04,0.13,0.09,0.16,0.11c0.51,0.45,0.74,0.95,0.96,1.68c1.18,3.83-0.56,9.43-5.37,9.66c-1.77,0.08-2.96-0.97-3.61-2.69
		c-0.87-2.28-0.84-4.83-0.3-7.24c0.59-2.65,1.8-5.19,3.75-7.1c0.92-0.9,2.02-1.74,3.28-2.07c0.89-0.24,1.74-0.14,2.44,0.21
		c3.23,1.58,5.13,6.04,6.09,9.3c0.34,1.14,2.01,1.8,2.87,0.76c0.46-0.56,1-1.08,1.56-1.54c0.02-0.02,0.08-0.06,0.13-0.1
		c0.11-0.08,0.23-0.16,0.35-0.24c0.24-0.16,0.5-0.31,0.76-0.42c0,0.01,0.25-0.07,0.42-0.11c0.07-0.01,0.2-0.02,0.24-0.02
		c0.01,0,0.01,0,0.02,0c-0.02,0,0.01,0.02,0.16,0.05c0.02,0.02,0.04,0.03,0.07,0.06c-0.27-0.2,0.15,0.15,0.17,0.17
		c0.05,0.06,0.35,0.55,0.45,0.78c0.2,0.47,0.3,0.98,0.44,1.48c0.03,0.13,0.06,0.22,0.08,0.29c0,0.01,0,0.02,0,0.06
		c0.05,0.62,0,1.26,0,1.88c0,6.21,0,12.43,0,18.64c0,1.9,0,3.8,0,5.7c0,2.21,3.43,2.21,3.43,0c0-5.4,0-10.81,0-16.21
		c0-2.91,0-5.82,0-8.72C103.83,38.08,103.16,34.47,100.31,33.42z M85.23,36.41C84.95,36.42,85.08,36.39,85.23,36.41L85.23,36.41z"/>
	<path class="st2" d="M115.39,48.78"/>
	<path class="st1" d="M111.33,67.38c0,1.6-1.3,2.9-2.9,2.9c-1.6,0-2.9-1.3-2.9-2.9c0-1.6,1.3-2.9,2.9-2.9
		C110.03,64.49,111.33,65.79,111.33,67.38z"/>
</g>
</svg>
